<svg width="21" height="20" viewBox="0 0 21 20" fill="none" xmlns="http://www.w3.org/2000/svg">
    <path d="M8.30493 16.875H19.5549" stroke="#555555" stroke-width="1.5" stroke-linecap="round" stroke-linejoin="round"/>
    <path d="M2.67994 8.10161V3.99224C2.67993 3.89341 2.70336 3.79599 2.7483 3.70797C2.79324 3.61995 2.85842 3.54384 2.93848 3.48589C3.01853 3.42795 3.11119 3.38981 3.20885 3.37462C3.3065 3.35942 3.40637 3.3676 3.50025 3.39849L4.55494 3.75005L5.80494 6.0938L8.30494 6.87505V3.99224C8.30493 3.89341 8.32836 3.79599 8.3733 3.70797C8.41824 3.61995 8.48342 3.54384 8.56348 3.48589C8.64353 3.42795 8.73619 3.38981 8.83385 3.37462C8.9315 3.35942 9.03137 3.3676 9.12525 3.39849L10.1799 3.75005L12.6799 8.12505L16.4768 9.17974C17.003 9.32521 17.4669 9.63945 17.7972 10.0742C18.1275 10.5089 18.3058 11.04 18.3049 11.586V14.3751L4.50806 10.5079C3.98185 10.3624 3.51796 10.0482 3.18769 9.61343C2.85741 9.17871 2.67902 8.64756 2.67994 8.10161V8.10161Z" stroke="#555555" stroke-width="1.5" stroke-linecap="round" stroke-linejoin="round"/>
</svg>
