<svg width="21" height="20" viewBox="0 0 21 20" fill="none" xmlns="http://www.w3.org/2000/svg">
    <path d="M2.67993 16.875H13.9299" stroke="#555555" stroke-width="1.5" stroke-linecap="round" stroke-linejoin="round"/>
    <path d="M2.12515 10.9687L5.07046 13.7265C5.46319 14.0947 5.96425 14.3262 6.49913 14.3867C7.03402 14.4473 7.57415 14.3335 8.03921 14.0625L19.8673 7.18746L18.4142 5.40621C18.0362 4.94454 17.5056 4.6333 16.9181 4.5287C16.3307 4.42411 15.7252 4.53307 15.2111 4.8359L11.7423 6.87496L7.05484 5.31246L5.76577 5.86715C5.66933 5.90848 5.58485 5.97342 5.52011 6.05599C5.45538 6.13856 5.41247 6.2361 5.39534 6.33962C5.37822 6.44313 5.38743 6.5493 5.42213 6.64832C5.45683 6.74733 5.5159 6.83602 5.5939 6.90621L7.99234 9.06246L5.80484 10.3125L3.61734 9.37496L2.30484 9.93746C2.20935 9.97848 2.12559 10.0427 2.06116 10.1242C1.99672 10.2057 1.95363 10.3021 1.93579 10.4044C1.91795 10.5068 1.92592 10.612 1.95899 10.7106C1.99205 10.8091 2.04916 10.8978 2.12515 10.9687V10.9687Z" stroke="#555555" stroke-width="1.5" stroke-linecap="round" stroke-linejoin="round"/>
</svg>
