<svg width="28" height="23" viewBox="0 0 28 23" fill="none" xmlns="http://www.w3.org/2000/svg">
    <path fill-rule="evenodd" clip-rule="evenodd" d="M12.3064 0.556457L12.1899 0.421034C11.6853 -0.0971617 10.8911 -0.137023 10.3419 0.30145L10.2101 0.421034L0.410051 10.4835L0.352094 10.5467L0.274868 10.6442L0.17454 10.8042L0.0997157 10.9662L0.0501832 11.1176L0.00967003 11.3302L0 11.5L0.00390301 11.6082L0.0283361 11.7885L0.0696333 11.9487L0.131143 12.1084L0.204394 12.2485L0.307564 12.3991L0.410051 12.5165L10.2101 22.579C10.7568 23.1403 11.6432 23.1403 12.1899 22.579C12.6946 22.0608 12.7334 21.2454 12.3064 20.6815L12.1899 20.546L4.7824 12.9375H26.6C27.3732 12.9375 28 12.2939 28 11.5C28 10.7061 27.3732 10.0625 26.6 10.0625H4.7796L12.1899 2.45397C12.6946 1.93577 12.7334 1.12038 12.3064 0.556457L12.1899 0.421034L12.3064 0.556457Z" fill="#0D2333"/>
</svg>
