<svg width="24" height="24" viewBox="0 0 24 24" fill="none" xmlns="http://www.w3.org/2000/svg">
    <path d="M7.51119 19.8118C6.78517 18.5098 6.40121 16.9138 6.40121 15.1858C6.40121 12.2818 8.91519 9.91781 11.9992 9.91781C15.0892 9.91781 17.5972 12.2818 17.5972 15.1858C17.5972 15.5158 17.8672 15.7858 18.1972 15.7858C18.5272 15.7858 18.7972 15.5158 18.7972 15.1858C18.7972 11.6158 15.7492 8.71777 11.9993 8.71777C8.2493 8.71777 5.20117 11.6218 5.20117 15.1858C5.20117 17.1178 5.63919 18.9238 6.46719 20.3998C7.27719 21.8458 7.84121 22.5118 8.87919 23.5617C8.99917 23.6817 9.14919 23.7417 9.30517 23.7417C9.45519 23.7417 9.61117 23.6877 9.71917 23.5617C9.95919 23.3338 9.95919 22.9497 9.72519 22.7157C8.80117 21.7858 8.28519 21.1918 7.51119 19.8118Z" fill="#0D2333"/>
    <path d="M5.32814 2.89198C7.38616 1.76996 9.63014 1.19998 12.0122 1.19998C14.4001 1.19998 16.3981 1.71 18.6962 2.898C18.7862 2.94002 18.8762 2.96398 18.9722 2.96398C19.1882 2.96398 19.3982 2.844 19.5062 2.63998C19.6562 2.34596 19.5422 1.98 19.2481 1.82998C16.8002 0.564018 14.5682 0 12.0122 0C9.43214 0 6.99016 0.618018 4.75215 1.836C4.45813 1.998 4.35615 2.358 4.51213 2.65202C4.67413 2.94598 5.03413 3.04802 5.32814 2.89198Z" fill="#0D2333"/>
    <path d="M11.957 5.7959C8.087 5.7959 4.54703 7.96192 2.94503 11.3099C2.39901 12.4439 2.12305 13.7519 2.12305 15.1919C2.12305 16.8119 2.41105 18.3599 2.99903 19.9379C3.11901 20.2499 3.46101 20.4059 3.77303 20.2918C4.08505 20.1719 4.24103 19.8299 4.12701 19.5178C3.41297 17.6039 3.32899 16.1279 3.32899 15.1919C3.32899 13.9319 3.56299 12.7979 4.03099 11.8259C5.43499 8.88588 8.54899 6.98992 11.963 6.98992C16.757 6.98992 20.657 10.6679 20.657 15.1919C20.657 16.4819 19.5349 17.5259 18.161 17.5259C16.787 17.5259 15.665 16.4759 15.665 15.1919C15.665 13.2419 14.009 11.6579 11.969 11.6579C9.92897 11.6579 8.27297 13.2419 8.27297 15.1919C8.27297 17.5619 9.19698 19.7879 10.871 21.4559C12.167 22.7459 13.415 23.4539 15.329 23.9759C15.3769 23.9939 15.4309 23.9999 15.4849 23.9999C15.7489 23.9999 15.9889 23.8259 16.0609 23.5619C16.1509 23.2439 15.959 22.9139 15.6409 22.8239C13.9489 22.3619 12.8449 21.7379 11.7109 20.6099C10.2649 19.1699 9.46693 17.2439 9.46693 15.1979C9.46693 13.9079 10.5889 12.8639 11.9629 12.8639C13.3369 12.8639 14.4589 13.9139 14.4589 15.1979C14.4589 17.1479 16.1209 18.7319 18.1549 18.7319C20.1889 18.7319 21.8509 17.1479 21.8509 15.1979C21.851 10.0139 17.411 5.7959 11.957 5.7959Z" fill="#0D2333"/>
    <path d="M22.6914 8.28001C21.4973 6.61203 19.9853 5.30399 18.1914 4.38003C14.4114 2.43603 9.58737 2.44205 5.81339 4.39201C4.0134 5.322 2.49538 6.64201 1.30738 8.32203C1.1154 8.59203 1.18138 8.96401 1.45138 9.15605C1.55938 9.22805 1.67936 9.26405 1.7994 9.26405C1.98542 9.26405 2.17138 9.18007 2.29142 9.01807C3.3654 7.49409 4.73941 6.30007 6.36543 5.46009C9.80343 3.68411 14.2014 3.67809 17.6454 5.44811C19.2654 6.27611 20.6334 7.46411 21.7134 8.9761C21.9054 9.2461 22.2834 9.30612 22.5534 9.11409C22.8234 8.92199 22.8834 8.55001 22.6914 8.28001Z" fill="#0D2333"/>
    <path d="M19.158 20.2078C18.678 20.2918 18.192 20.3218 17.904 20.3218C16.7041 20.3218 15.708 20.0398 14.862 19.4638C13.404 18.4738 12.534 16.8779 12.534 15.1918C12.534 14.8618 12.264 14.5918 11.934 14.5918C11.604 14.5918 11.334 14.8618 11.334 15.1918C11.334 17.2798 12.402 19.2478 14.184 20.4598C15.222 21.1618 16.476 21.5218 17.904 21.5218C18.072 21.5218 18.666 21.5158 19.368 21.3898C19.692 21.3298 19.914 21.0178 19.854 20.6938C19.794 20.3698 19.482 20.1478 19.158 20.2078Z" fill="#0D2333"/>
</svg>
