<svg width="30" height="30" viewBox="0 0 30 30" fill="none" xmlns="http://www.w3.org/2000/svg">
    <path fill-rule="evenodd" clip-rule="evenodd" d="M7.50301 30C5.01773 30 3.00301 27.9853 3.00301 25.5V16.5H1.50301C0.16665 16.5 -0.5026 14.8843 0.442347 13.9393L13.9423 0.43934C14.5281 -0.146447 15.4779 -0.146447 16.0637 0.43934L29.5637 13.9393C30.5086 14.8843 29.8394 16.5 28.503 16.5H27.003V25.5C27.003 27.9853 24.9883 30 22.503 30H7.50301ZM15.0027 3.62125L5.02908 13.5949C5.59787 13.8081 6.00272 14.3567 6.00272 14.9999V25.4999C6.00272 26.3284 6.67429 26.9999 7.50272 26.9999L10.5027 26.9984L10.5027 20.9999C10.5027 19.3431 11.8459 17.9999 13.5027 17.9999H16.5027C18.1596 17.9999 19.5027 19.3431 19.5027 20.9999L19.5027 26.9984L22.5027 26.9999C23.3311 26.9999 24.0027 26.3284 24.0027 25.4999V14.9999C24.0027 14.3567 24.4076 13.8081 24.9763 13.5949L15.0027 3.62125ZM16.5025 21H13.5025L13.5025 26.9985H16.5025L16.5025 21Z" fill="black" fill-opacity="0.33"/>
</svg>
