<svg width="30" height="25" viewBox="0 0 30 25" fill="none" xmlns="http://www.w3.org/2000/svg">
    <path fill-rule="evenodd" clip-rule="evenodd" d="M22.0585 0.582357L21.9172 0.457588C21.3289 0.000102058 20.4781 0.0416917 19.9375 0.582357L19.8127 0.723652C19.3552 1.31202 19.3968 2.16277 19.9375 2.70344L24.8751 7.64222H7.49951L7.3246 7.65231C6.57867 7.73895 5.99968 8.37289 5.99968 9.14205C5.99968 9.97039 6.67117 10.6419 7.49951 10.6419H28.4971L28.6676 10.6329C29.8885 10.5027 30.4615 8.98528 29.5577 8.08151L22.0585 0.582357ZM24.0003 15.1413C24.0003 14.3129 23.3288 13.6414 22.5005 13.6414H1.50284L1.33241 13.6504C0.111493 13.7806 -0.461464 15.298 0.442297 16.2018L7.94145 23.701L8.08275 23.8257C8.67112 24.2832 9.52187 24.2416 10.0625 23.701L10.1873 23.5597C10.6448 22.9713 10.6032 22.1205 10.0625 21.5799L5.12493 16.6411H22.5005L22.6754 16.631C23.4213 16.5444 24.0003 15.9104 24.0003 15.1413Z" fill="black" fill-opacity="0.33"/>
</svg>
