<svg width="24" height="24" viewBox="0 0 24 24" fill="none" xmlns="http://www.w3.org/2000/svg">
    <path d="M4.79799 8.75C4.66027 8.51023 4.35464 8.42919 4.11535 8.56691L3.99914 8.63398V8.50002C3.99914 8.22364 3.7755 8 3.49913 8C3.22275 8 2.99911 8.22364 2.99911 8.50002V8.63398L2.88291 8.56691C2.64464 8.43069 2.33798 8.51122 2.20026 8.75C2.06161 8.98925 2.14364 9.29492 2.38289 9.43311L2.49881 9.5L2.38289 9.56689C2.14364 9.70508 2.06161 10.0108 2.20026 10.25C2.29205 10.4102 2.46103 10.5 2.63287 10.5C2.71786 10.5 2.80378 10.4785 2.88286 10.4331L2.99916 10.366V10.5C2.99916 10.7764 3.2228 11 3.49917 11C3.77555 11 3.99919 10.7764 3.99919 10.5V10.366L4.11539 10.4331C4.19447 10.4785 4.28039 10.5 4.36538 10.5C4.53727 10.5 4.70621 10.4101 4.79799 10.25C4.93664 10.0108 4.85461 9.70508 4.61536 9.56689L4.49944 9.5L4.61536 9.43311C4.85461 9.29492 4.93664 8.98925 4.79799 8.75Z" fill="#0D2333"/>
    <path d="M8.79801 8.75C8.66029 8.51023 8.35466 8.42919 8.11537 8.56691L7.99916 8.63398V8.50002C7.99916 8.22364 7.77552 8 7.49915 8C7.22277 8 6.99913 8.22364 6.99913 8.50002V8.63398L6.88293 8.56691C6.64466 8.43069 6.338 8.51122 6.20029 8.75C6.06158 8.98925 6.14366 9.29492 6.38291 9.43311L6.49883 9.5L6.38291 9.56689C6.14366 9.70508 6.06163 10.0108 6.20029 10.25C6.29207 10.4102 6.46105 10.5 6.6329 10.5C6.71788 10.5 6.8038 10.4785 6.88288 10.4331L6.99908 10.366V10.5C6.99908 10.7764 7.22272 11 7.4991 11C7.77548 11 7.99912 10.7764 7.99912 10.5V10.366L8.11532 10.4331C8.19444 10.4785 8.28037 10.5 8.3653 10.5C8.5372 10.5 8.70613 10.4101 8.79791 10.25C8.93657 10.0108 8.85454 9.70508 8.61529 9.56689L8.49937 9.5L8.61529 9.43311C8.85468 9.29492 8.93671 8.98925 8.79801 8.75Z" fill="#0D2333"/>
    <path d="M12.798 8.75005C12.6603 8.51028 12.3527 8.42923 12.1154 8.56695L11.9991 8.63398V8.50002C11.9991 8.22364 11.7755 8 11.4991 8C11.2228 8 10.9991 8.22364 10.9991 8.50002V8.63398L10.8829 8.56691C10.6456 8.43069 10.338 8.51122 10.2003 8.75C10.0616 8.98925 10.1436 9.29492 10.3829 9.43311L10.4988 9.5L10.3829 9.56689C10.1436 9.70508 10.0616 10.0108 10.2003 10.25C10.292 10.4102 10.461 10.5 10.6329 10.5C10.7179 10.5 10.8038 10.4785 10.8829 10.4331L10.9991 10.366V10.5C10.9991 10.7764 11.2227 11 11.4991 11C11.7755 11 11.9991 10.7764 11.9991 10.5V10.3661L12.1153 10.4331C12.1944 10.4786 12.2804 10.5 12.3653 10.5C12.5372 10.5 12.7061 10.4102 12.7979 10.25C12.9366 10.0108 12.8545 9.70512 12.6153 9.56694L12.4994 9.50005L12.6153 9.43316C12.8546 9.29497 12.9367 8.9893 12.798 8.75005Z" fill="#0D2333"/>
    <path d="M22 9.26089V7.00002C22 5.897 21.1025 5 20 5H1.99997C0.897469 5.00005 0 5.897 0 7.00002V12C0 13.103 0.897469 14 2.00002 14H13.0253C13.2792 16.799 15.6366 19.0001 18.5 19.0001C21.5322 19 24 16.5328 24 13.5C24 11.7959 23.2207 10.2705 22 9.26089ZM2.00002 13C1.44825 13 1.00003 12.5513 1.00003 12V7.00002C1.00003 6.44877 1.4483 6.00003 2.00002 6.00003H20C20.5518 6.00003 21 6.44877 21 7.00002V8.60727C20.2489 8.22181 19.4006 8.00005 18.5 8.00005C17.5995 8.00005 16.7511 8.22186 16 8.60727V8.50002C16 8.22364 15.7764 8 15.5 8C15.2236 8 15 8.22364 15 8.50002V8.63398L14.8838 8.56691C14.6445 8.43069 14.3379 8.51122 14.2012 8.75C14.0625 8.98925 14.1445 9.29492 14.3838 9.43311L14.4997 9.5L14.3838 9.56689C14.182 9.68347 14.1014 9.91761 14.1614 10.1322C13.5328 10.94 13.1228 11.9245 13.0253 13H2.00002ZM18.5 18C16.0185 18 14 15.9815 14 13.5C14 11.0186 16.0186 9.00003 18.5 9.00003C20.9814 9.00003 23 11.0186 23 13.5C23 15.9815 20.9814 18 18.5 18Z" fill="#0D2333"/>
    <path d="M20.6465 11.6465L17.5 14.7929L16.3535 13.6465C16.1582 13.4511 15.8418 13.4511 15.6465 13.6465C15.4512 13.8418 15.4512 14.1582 15.6465 14.3535L17.1465 15.8535C17.2441 15.9511 17.3721 16 17.5 16C17.6279 16 17.7559 15.9511 17.8536 15.8535L21.3536 12.3535C21.5489 12.1581 21.5489 11.8417 21.3536 11.6465C21.1582 11.4512 20.8418 11.4512 20.6465 11.6465Z" fill="#0D2333"/>
</svg>
