<svg width="96" height="112" viewBox="0 0 96 112" fill="none" xmlns="http://www.w3.org/2000/svg">
    <path d="M0 8C0 3.58172 3.58172 0 8 0H96V112H8C3.58172 112 0 108.418 0 104V8Z" fill="#F2EBE1"/>
    <g clip-path="url(#clip0_56_63)">
        <path d="M34.9225 58.1113C34.9225 57.5129 35.3392 57.0213 36.0203 57.0213C36.6712 57.0213 37.1104 57.4918 37.1104 58.1113C37.1104 58.7308 36.6712 59.2012 36.0203 59.2012C35.3392 59.2012 34.9225 58.7097 34.9225 58.1113ZM37.8523 58.1113V56.4085H37.0654V56.8233C36.8158 56.5167 36.4373 56.3245 35.9224 56.3245C34.9082 56.3245 34.1123 57.0728 34.1123 58.1121C34.1123 59.1514 34.9078 59.8998 35.9224 59.8998C36.437 59.8998 36.8158 59.7073 37.0654 59.401V59.8143H37.8514V58.1113H37.8523ZM64.4407 58.1113C64.4407 57.5129 64.8574 57.0213 65.5387 57.0213C66.1902 57.0213 66.6288 57.4918 66.6288 58.1113C66.6288 58.7308 66.1902 59.2012 65.5387 59.2012C64.8576 59.2012 64.4407 58.7097 64.4407 58.1113ZM67.3714 58.1113V55.0416H66.5838V56.8233C66.3342 56.5167 65.9556 56.3245 65.4408 56.3245C64.4266 56.3245 63.6307 57.0728 63.6307 58.1121C63.6307 59.1514 64.4262 59.8998 65.4408 59.8998C65.9556 59.8998 66.3342 59.7073 66.5838 59.401V59.8143H67.3714V58.1113ZM47.6188 56.9863C48.1259 56.9863 48.4515 57.2854 48.5347 57.812H46.657C46.741 57.3204 47.0583 56.9863 47.619 56.9863H47.6188ZM47.6347 56.3226C46.5741 56.3226 45.8322 57.0485 45.8322 58.1102C45.8322 59.1927 46.6039 59.8979 47.6874 59.8979C48.2324 59.8979 48.7316 59.7699 49.1708 59.4209L48.7851 58.8723C48.4818 59.1004 48.0955 59.2284 47.7323 59.2284C47.2252 59.2284 46.7635 59.0075 46.65 58.3946H49.337C49.3447 58.3025 49.3527 58.2096 49.3527 58.11C49.3447 57.0487 48.6471 56.3224 47.6342 56.3224L47.6347 56.3226ZM57.1348 58.11C57.1348 57.5117 57.5515 57.0201 58.2326 57.0201C58.8834 57.0201 59.3226 57.4905 59.3226 58.11C59.3226 58.7296 58.8834 59.2 58.2326 59.2C57.5515 59.2 57.1346 58.7084 57.1346 58.11H57.1348ZM60.0644 58.11V56.4085H59.2779V56.8233C59.0274 56.5167 58.6497 56.3245 58.1349 56.3245C57.1207 56.3245 56.3248 57.0728 56.3248 58.1121C56.3248 59.1514 57.1203 59.8998 58.1349 59.8998C58.6497 59.8998 59.0274 59.7073 59.2779 59.401V59.8143H60.0646V58.1113L60.0644 58.11ZM52.691 58.11C52.691 59.1427 53.4552 59.8977 54.6215 59.8977C55.1666 59.8977 55.5297 59.7836 55.9224 59.4918L55.5445 58.8934C55.249 59.0932 54.9388 59.2 54.5964 59.2C53.9682 59.1927 53.5063 58.7655 53.5063 58.11C53.5063 57.4546 53.9682 57.0276 54.5964 57.0201C54.9379 57.0201 55.2481 57.1269 55.5445 57.3267L55.9224 56.7283C55.529 56.4365 55.1659 56.3224 54.6215 56.3224C53.4552 56.3224 52.691 57.0771 52.691 58.11ZM62.8354 56.3224C62.3814 56.3224 62.0857 56.5221 61.8813 56.8212V56.4085H61.1015V59.8125H61.8893V57.9043C61.8893 57.341 62.1466 57.028 62.661 57.028C62.8294 57.0257 62.9967 57.0548 63.1531 57.1136L63.3956 56.4159C63.2214 56.3514 62.9943 56.323 62.8349 56.323L62.8354 56.3224ZM41.7427 56.6791C41.3641 56.4443 40.8425 56.323 40.267 56.323C39.3503 56.323 38.76 56.7364 38.76 57.4127C38.76 57.9678 39.1995 58.3102 40.0086 58.417L40.3804 58.4668C40.8118 58.5238 41.0156 58.6306 41.0156 58.8229C41.0156 59.0861 40.7289 59.2363 40.1907 59.2363C39.6457 59.2363 39.2524 59.0724 38.9871 58.8801L38.6174 59.4574C39.0489 59.7565 39.5939 59.8992 40.1841 59.8992C41.2292 59.8992 41.8349 59.4362 41.8349 58.7881C41.8349 58.1897 41.3582 57.8767 40.5706 57.7699L40.1998 57.7193C39.8591 57.6778 39.5862 57.6133 39.5862 57.3851C39.5862 57.1363 39.8435 56.9865 40.2752 56.9865C40.7371 56.9865 41.1842 57.1504 41.4034 57.2783L41.744 56.68L41.7427 56.6791ZM51.8961 56.3236C51.4422 56.3236 51.1465 56.5234 50.943 56.8224V56.4085H50.1632V59.8125H50.9501V57.9043C50.9501 57.341 51.2074 57.028 51.7217 57.028C51.8902 57.0257 52.0574 57.0548 52.2139 57.1136L52.4564 56.4159C52.2822 56.3514 52.0551 56.323 51.8957 56.323L51.8961 56.3236ZM45.1811 56.4085H43.8944V55.3758H43.0989V56.4085H42.3649V57.085H43.0989V58.6379C43.0989 59.4277 43.4248 59.8981 44.3556 59.8981C44.6972 59.8981 45.0905 59.7986 45.3401 59.6349L45.1128 59.0011C44.878 59.129 44.6207 59.1935 44.4161 59.1935C44.0227 59.1935 43.8944 58.9654 43.8944 58.6238V57.0856H45.1811V56.4085ZM33.4164 59.8133V57.677C33.4164 56.8724 32.8714 56.3311 31.9928 56.3238C31.5309 56.3166 31.0544 56.4518 30.7208 56.9295C30.4712 56.552 30.0779 56.3238 29.5249 56.3238C29.1384 56.3238 28.7607 56.4306 28.4651 56.8293V56.4085H27.6775V59.8125H28.4712V57.925C28.4712 57.3341 28.8196 57.0201 29.3576 57.0201C29.8801 57.0201 30.1445 57.3406 30.1445 57.9176V59.812H30.94V57.9246C30.94 57.3337 31.3031 57.0197 31.8254 57.0197C32.3627 57.0197 32.6192 57.3401 32.6192 57.9171V59.8116L33.4164 59.8133Z" fill="#231F20"/>
        <path d="M53.0805 50.0834H41.4678V28.8334H53.0807L53.0805 50.0834Z" fill="#FF5F00"/>
        <path d="M42.6885 39.4583C42.6885 35.1657 44.7655 31.3418 47.9998 28.8775C45.5516 27.0094 42.5235 25.9956 39.4058 26C31.7256 26 25.5 32.0254 25.5 39.4583C25.5 46.8912 31.7256 52.9166 39.4058 52.9166C42.5236 52.9212 45.5517 51.9073 48 50.0391C44.7659 47.5753 42.6885 43.7512 42.6885 39.4583Z" fill="#EB001B"/>
        <path d="M69.7742 39.4583C69.7742 46.8912 63.5488 52.9167 55.8691 52.9167C52.7511 52.9211 49.7228 51.9072 47.2742 50.0391C50.5092 47.5749 52.5861 43.7512 52.5861 39.4583C52.5861 35.1655 50.5092 31.3418 47.2742 28.8775C49.7227 27.0095 52.751 25.9956 55.8689 26C63.5486 26 69.7739 32.0254 69.7739 39.4583" fill="#F79E1B"/>
    </g>
    <path d="M16.6357 85V83.4773L20.6754 79.517C21.0618 79.1269 21.3838 78.7803 21.6413 78.4773C21.8989 78.1742 22.0921 77.8807 22.2209 77.5966C22.3497 77.3125 22.4141 77.0095 22.4141 76.6875C22.4141 76.3201 22.3307 76.0057 22.1641 75.7443C21.9974 75.4792 21.7682 75.2746 21.4766 75.1307C21.1849 74.9867 20.8535 74.9148 20.4822 74.9148C20.0997 74.9148 19.7644 74.9943 19.4766 75.1534C19.1887 75.3087 18.9652 75.5303 18.8061 75.8182C18.6508 76.1061 18.5732 76.4489 18.5732 76.8466H16.5675C16.5675 76.108 16.736 75.4659 17.0732 74.9205C17.4103 74.375 17.8743 73.9527 18.4652 73.6534C19.0599 73.3542 19.7417 73.2045 20.5107 73.2045C21.291 73.2045 21.9766 73.3504 22.5675 73.642C23.1584 73.9337 23.6167 74.3333 23.9425 74.8409C24.272 75.3485 24.4368 75.928 24.4368 76.5795C24.4368 77.0152 24.3535 77.4432 24.1868 77.8636C24.0201 78.2841 23.7266 78.75 23.3061 79.2614C22.8894 79.7727 22.3042 80.392 21.5504 81.1193L19.5447 83.1591V83.2386H24.6129V85H16.6357ZM30.6186 85.1591C29.861 85.1591 29.183 85.017 28.5845 84.733C27.986 84.4451 27.5107 84.0511 27.1584 83.5511C26.8099 83.0511 26.6243 82.4792 26.6016 81.8352H28.647C28.6849 82.3125 28.8913 82.7027 29.2663 83.0057C29.6413 83.3049 30.0921 83.4545 30.6186 83.4545C31.0315 83.4545 31.3989 83.3598 31.7209 83.1705C32.0429 82.9811 32.2966 82.7178 32.4822 82.3807C32.6679 82.0436 32.7588 81.6591 32.755 81.2273C32.7588 80.7879 32.666 80.3977 32.4766 80.0568C32.2872 79.7159 32.0277 79.4489 31.6982 79.2557C31.3686 79.0587 30.9898 78.9602 30.5618 78.9602C30.2133 78.9564 29.8705 79.0208 29.5334 79.1534C29.1963 79.286 28.9292 79.4602 28.7322 79.6761L26.8288 79.3636L27.4368 73.3636H34.1868V75.125H29.1811L28.8459 78.2102H28.9141C29.13 77.9564 29.4349 77.7462 29.8288 77.5795C30.2228 77.4091 30.6546 77.3239 31.1243 77.3239C31.8288 77.3239 32.4576 77.4905 33.0107 77.8239C33.5637 78.1534 33.9993 78.608 34.3175 79.1875C34.6357 79.767 34.7947 80.4299 34.7947 81.1761C34.7947 81.9451 34.6167 82.6307 34.2607 83.233C33.9084 83.8314 33.4179 84.303 32.7891 84.6477C32.1641 84.9886 31.4406 85.1591 30.6186 85.1591ZM42.9197 82.8182V82.2045C42.9197 81.7538 43.0144 81.339 43.2038 80.9602C43.397 80.5814 43.6773 80.2765 44.0447 80.0455C44.4122 79.8144 44.8572 79.6989 45.38 79.6989C45.9179 79.6989 46.3686 79.8144 46.7322 80.0455C47.0959 80.2727 47.3705 80.5758 47.5561 80.9545C47.7455 81.3333 47.8402 81.75 47.8402 82.2045V82.8182C47.8402 83.2689 47.7455 83.6837 47.5561 84.0625C47.3667 84.4413 47.0883 84.7462 46.7209 84.9773C46.3572 85.2083 45.9103 85.3239 45.38 85.3239C44.8497 85.3239 44.4008 85.2083 44.0334 84.9773C43.666 84.7462 43.3875 84.4413 43.1982 84.0625C43.0125 83.6837 42.9197 83.2689 42.9197 82.8182ZM44.4027 82.2045V82.8182C44.4027 83.1174 44.4747 83.392 44.6186 83.642C44.7625 83.892 45.0163 84.017 45.38 84.017C45.7474 84.017 45.9993 83.8939 46.1357 83.6477C46.2758 83.3977 46.3459 83.1212 46.3459 82.8182V82.2045C46.3459 81.9015 46.2796 81.625 46.147 81.375C46.0144 81.1212 45.7588 80.9943 45.38 80.9943C45.0239 80.9943 44.772 81.1212 44.6243 81.375C44.4766 81.625 44.4027 81.9015 44.4027 82.2045ZM37.005 76.1591V75.5455C37.005 75.0909 37.1016 74.6742 37.2947 74.2955C37.4879 73.9167 37.7682 73.6136 38.1357 73.3864C38.5031 73.1553 38.9482 73.0398 39.4709 73.0398C40.005 73.0398 40.4538 73.1553 40.8175 73.3864C41.1849 73.6136 41.4614 73.9167 41.647 74.2955C41.8326 74.6742 41.9254 75.0909 41.9254 75.5455V76.1591C41.9254 76.6136 41.8307 77.0303 41.6413 77.4091C41.4557 77.7841 41.1792 78.0852 40.8118 78.3125C40.4444 78.5398 39.9974 78.6534 39.4709 78.6534C38.9368 78.6534 38.486 78.5398 38.1186 78.3125C37.755 78.0852 37.4785 77.7822 37.2891 77.4034C37.0997 77.0246 37.005 76.6098 37.005 76.1591ZM38.4993 75.5455V76.1591C38.4993 76.4621 38.5694 76.7386 38.7095 76.9886C38.8535 77.2348 39.1072 77.358 39.4709 77.358C39.8345 77.358 40.0845 77.2348 40.2209 76.9886C40.361 76.7386 40.4311 76.4621 40.4311 76.1591V75.5455C40.4311 75.2424 40.3648 74.9659 40.2322 74.7159C40.0997 74.4621 39.8459 74.3352 39.4709 74.3352C39.111 74.3352 38.8591 74.4621 38.7152 74.7159C38.5713 74.9697 38.4993 75.2462 38.4993 75.5455ZM37.6527 85L45.6527 73.3636H47.0732L39.0732 85H37.6527ZM60.8686 79.1818C60.8686 80.4508 60.6281 81.5303 60.147 82.4205C59.6697 83.3106 59.0182 83.9905 58.1925 84.4602C57.3705 84.9261 56.4463 85.1591 55.4197 85.1591C54.3857 85.1591 53.4576 84.9242 52.6357 84.4545C51.8137 83.9848 51.1641 83.3049 50.6868 82.4148C50.2095 81.5246 49.9709 80.447 49.9709 79.1818C49.9709 77.9129 50.2095 76.8333 50.6868 75.9432C51.1641 75.053 51.8137 74.375 52.6357 73.9091C53.4576 73.4394 54.3857 73.2045 55.4197 73.2045C56.4463 73.2045 57.3705 73.4394 58.1925 73.9091C59.0182 74.375 59.6697 75.053 60.147 75.9432C60.6281 76.8333 60.8686 77.9129 60.8686 79.1818ZM58.3743 79.1818C58.3743 78.3598 58.2512 77.6667 58.005 77.1023C57.7625 76.5379 57.4197 76.1098 56.9766 75.8182C56.5334 75.5265 56.0144 75.3807 55.4197 75.3807C54.825 75.3807 54.3061 75.5265 53.8629 75.8182C53.4197 76.1098 53.075 76.5379 52.8288 77.1023C52.5864 77.6667 52.4652 78.3598 52.4652 79.1818C52.4652 80.0038 52.5864 80.697 52.8288 81.2614C53.075 81.8258 53.4197 82.2538 53.8629 82.5455C54.3061 82.8371 54.825 82.983 55.4197 82.983C56.0144 82.983 56.5334 82.8371 56.9766 82.5455C57.4197 82.2538 57.7625 81.8258 58.005 81.2614C58.2512 80.697 58.3743 80.0038 58.3743 79.1818ZM62.6911 85V73.3636H70.3956V75.392H65.1513V78.1648H69.8842V80.1932H65.1513V85H62.6911ZM72.0504 85V73.3636H79.755V75.392H74.5107V78.1648H79.2436V80.1932H74.5107V85H72.0504Z" fill="#333333"/>
    <defs>
        <clipPath id="clip0_56_63">
            <rect width="45" height="34" fill="white" transform="translate(25.5 26)"/>
        </clipPath>
    </defs>
</svg>
