<svg width="21" height="23" viewBox="0 0 21 23" fill="none" xmlns="http://www.w3.org/2000/svg">
    <path d="M17.0695 11.8062L17.0688 9.65665C17.0679 6.52091 14.9828 3.86376 12.1267 2.99652L12.1265 2.02331C12.1261 0.908942 11.2193 0.00259839 10.1049 0.00292229C8.99054 0.00324619 8.0842 0.910117 8.08452 2.02448L8.08481 2.99769C5.2292 3.86659 3.14568 6.52491 3.14659 9.66069L3.14722 11.8102C3.14802 14.5646 2.09886 17.1768 0.193033 19.1654C0.00626187 19.3603 -0.0461549 19.6478 0.0598161 19.896C0.165787 20.1442 0.409698 20.3053 0.67961 20.3052L6.81029 20.3034C7.12367 21.8389 8.48498 22.9975 10.1116 22.9971C11.7382 22.9966 13.0988 21.8372 13.4113 20.3015L19.542 20.2997C19.8119 20.2996 20.0557 20.1385 20.1615 19.8902C20.2673 19.6419 20.2148 19.3544 20.0279 19.1596C18.1209 17.1721 17.0703 14.5606 17.0695 11.8062ZM9.43184 2.02409C9.43173 1.65263 9.73384 1.35034 10.1053 1.35024C10.4768 1.35013 10.779 1.65224 10.7792 2.0237L10.7794 2.73005C10.5576 2.70874 10.3329 2.69748 10.1057 2.69755C9.87844 2.69762 9.65376 2.709 9.43204 2.73044L9.43184 2.02409ZM10.1112 21.6498C9.23297 21.65 8.48402 21.087 8.20571 20.303L12.0159 20.3019C11.7381 21.0861 10.9894 21.6495 10.1112 21.6498ZM2.13117 18.9575C3.66476 16.9005 4.49529 14.4115 4.49453 11.8098L4.49391 9.6603C4.49301 6.56485 7.01063 4.04576 10.1061 4.04486C13.2015 4.04396 15.7206 6.56159 15.7215 9.65704L15.7221 11.8065C15.7229 14.4082 16.5549 16.8967 18.0897 18.9528L2.13117 18.9575Z" fill="#0D2333"/>
</svg>
