<svg width="30" height="30" viewBox="0 0 30 30" fill="none" xmlns="http://www.w3.org/2000/svg">
    <path fill-rule="evenodd" clip-rule="evenodd" d="M2.51904 5.15625C2.51904 5.6113 2.15012 5.98022 1.69507 5.98022C1.2399 5.98022 0.871094 5.6113 0.871094 5.15625V1.69556C0.871094 1.24039 1.2399 0.871582 1.69507 0.871582H5.15554C5.61071 0.871582 5.97952 1.24039 5.97952 1.69556C5.97952 2.15061 5.61071 2.51953 5.15554 2.51953H2.51904V5.15625ZM13.8899 22.8442C13.4347 22.8442 13.0659 22.4753 13.0659 22.0203C13.0659 21.5651 13.4347 21.1963 13.8899 21.1963H14.604C15.0591 21.1963 15.428 21.5651 15.428 22.0203C15.428 22.4753 15.0591 22.8442 14.604 22.8442H13.8899ZM14.4941 11.8579C14.4941 12.313 14.1252 12.6819 13.6702 12.6819C13.215 12.6819 12.8462 12.313 12.8462 11.8579V11.1438C12.8462 10.6886 13.215 10.3198 13.6702 10.3198C14.1252 10.3198 14.4941 10.6886 14.4941 11.1438V11.8579ZM19.5479 21.0864C19.0927 21.0864 18.7239 20.7175 18.7239 20.2625C18.7239 19.8073 19.0927 19.4385 19.5479 19.4385H20.262C20.717 19.4385 21.0859 19.8073 21.0859 20.2625C21.0859 20.7175 20.717 21.0864 20.262 21.0864H19.5479ZM2.54651 15.7581H6.38074C6.36975 15.8113 6.36426 15.8664 6.36426 15.9229V18.3948C6.36426 18.8498 6.73307 19.2188 7.18823 19.2188C7.64329 19.2188 8.01221 18.8498 8.01221 18.3948V15.9229C8.01221 15.8664 8.00671 15.8113 7.99573 15.7581H15.2632V16.6919H10.9236C10.4684 16.6919 10.0996 17.0607 10.0996 17.5159C10.0996 17.9709 10.4684 18.3398 10.9236 18.3398H16.0872C16.5422 18.3398 16.9111 17.9709 16.9111 17.5159V15.7581H19.9873V18.175C19.9873 18.6301 20.3561 18.999 20.8113 18.999C21.2663 18.999 21.6353 18.6301 21.6353 18.175V15.7581H27.3207C27.7757 15.7581 28.1447 15.3891 28.1447 14.9341C28.1447 14.4789 27.7757 14.1101 27.3207 14.1101H23.5579V12.5171H24.3818C24.8369 12.5171 25.2058 12.1482 25.2058 11.6931C25.2058 11.238 24.8369 10.8691 24.3818 10.8691H20.262C19.8068 10.8691 19.438 11.238 19.438 11.6931C19.438 12.1482 19.8068 12.5171 20.262 12.5171H21.9099V14.1101H16.9111V11.9678C16.9111 11.5126 16.5422 11.1438 16.0872 11.1438C15.632 11.1438 15.2632 11.5126 15.2632 11.9678V14.1101H2.54651C2.09135 14.1101 1.72253 14.4789 1.72253 14.9341C1.72253 15.3891 2.09135 15.7581 2.54651 15.7581ZM16.8013 5.65063C16.8013 5.19547 17.1701 4.82666 17.6252 4.82666C18.0803 4.82666 18.4492 5.19547 18.4492 5.65063V9.99023C18.4492 10.4453 18.0803 10.8142 17.6252 10.8142C17.1701 10.8142 16.8013 10.4453 16.8013 9.99023V5.65063ZM11.9124 5.98022H13.78V5.65063C13.78 5.19547 14.1488 4.82666 14.604 4.82666C15.0591 4.82666 15.428 5.19547 15.428 5.65063V8.39722C15.428 8.85227 15.0591 9.22119 14.604 9.22119C14.1488 9.22119 13.78 8.85227 13.78 8.39722V7.62817H11.9124V8.0127C11.9124 8.46775 11.5434 8.83667 11.0884 8.83667C10.6332 8.83667 10.2644 8.46775 10.2644 8.0127V5.65063C10.2644 5.19547 10.6332 4.82666 11.0884 4.82666C11.5434 4.82666 11.9124 5.19547 11.9124 5.65063V5.98022ZM5.32034 12.4622C4.86539 12.4622 4.49636 12.0932 4.49636 11.6382C4.49636 11.183 4.86539 10.8142 5.32034 10.8142H11.418C11.873 10.8142 12.2419 11.183 12.2419 11.6382C12.2419 12.0932 11.873 12.4622 11.418 12.4622H5.32034ZM23.2832 23.3936V24.2175C23.2832 24.6726 23.652 25.0415 24.1072 25.0415C24.5622 25.0415 24.9312 24.6726 24.9312 24.2175V19.2737C24.9312 18.8188 24.5622 18.4497 24.1072 18.4497C23.652 18.4497 23.2832 18.8188 23.2832 19.2737V21.7456H20.5366C20.0815 21.7456 19.7126 22.1147 19.7126 22.5696C19.7126 23.0246 20.0815 23.3936 20.5366 23.3936H23.2832ZM14.8787 25.0415H17.3506C17.8056 25.0415 18.1746 24.6726 18.1746 24.2175V19.9878C18.1746 19.5326 17.8056 19.1638 17.3506 19.1638C16.8954 19.1638 16.5266 19.5326 16.5266 19.9878V23.3936H14.8787C14.4235 23.3936 14.0547 23.7624 14.0547 24.2175C14.0547 24.6726 14.4235 25.0415 14.8787 25.0415ZM10.3193 20.0427C10.3193 19.5876 10.6881 19.2188 11.1433 19.2188C11.5984 19.2188 11.9673 19.5876 11.9673 20.0427V22.4597C11.9673 22.9148 11.5984 23.2837 11.1433 23.2837C10.6881 23.2837 10.3193 22.9148 10.3193 22.4597V20.0427ZM5.32056 19.9329H8.78125C9.2363 19.9329 9.60522 20.3017 9.60522 20.7568V24.2175C9.60522 24.6726 9.2363 25.0415 8.78125 25.0415H5.32056C4.86539 25.0415 4.49658 24.6726 4.49658 24.2175V20.7568C4.49658 20.3017 4.86539 19.9329 5.32056 19.9329ZM7.95728 21.5808H6.14453V23.3936H7.95728V21.5808ZM21.0859 4.82666H24.5466C25.0017 4.82666 25.3706 5.19547 25.3706 5.65063V9.11133C25.3706 9.56638 25.0017 9.9353 24.5466 9.9353H21.0859C20.6308 9.9353 20.262 9.56638 20.262 9.11133V5.65063C20.262 5.19547 20.6308 4.82666 21.0859 4.82666ZM23.7227 6.47461H21.9099V8.28735H23.7227V6.47461ZM5.32056 4.82666C4.86539 4.82666 4.49658 5.19547 4.49658 5.65063V9.11133C4.49658 9.56638 4.86539 9.9353 5.32056 9.9353H8.78125C9.2363 9.9353 9.60522 9.56638 9.60522 9.11133V5.65063C9.60522 5.19547 9.2363 4.82666 8.78125 4.82666H5.32056ZM7.95728 6.47461V8.28735H6.14453V6.47461H7.95728ZM27.3481 24.7119C27.3481 24.2568 27.717 23.8879 28.1721 23.8879C28.6272 23.8879 28.9961 24.2568 28.9961 24.7119V28.1726C28.9961 28.6277 28.6272 28.9966 28.1721 28.9966H24.7115C24.2566 28.9966 23.8876 28.6277 23.8876 28.1726C23.8876 27.7174 24.2566 27.3486 24.7115 27.3486H27.3481V24.7119ZM0.871094 24.7119V28.1726C0.871094 28.6277 1.2399 28.9966 1.69507 28.9966H5.15554C5.61071 28.9966 5.97952 28.6277 5.97952 28.1726C5.97952 27.7174 5.61071 27.3486 5.15554 27.3486H2.51904V24.7119C2.51904 24.2568 2.15012 23.8879 1.69507 23.8879C1.2399 23.8879 0.871094 24.2568 0.871094 24.7119ZM28.9961 5.15625V1.69556C28.9961 1.24039 28.6272 0.871582 28.1721 0.871582H24.7115C24.2566 0.871582 23.8876 1.24039 23.8876 1.69556C23.8876 2.15061 24.2566 2.51953 24.7115 2.51953H27.3481V5.15625C27.3481 5.6113 27.717 5.98022 28.1721 5.98022C28.6272 5.98022 28.9961 5.6113 28.9961 5.15625Z" fill="black" fill-opacity="0.33"/>
</svg>
