<svg width="30" height="42" viewBox="0 0 30 42" fill="none" xmlns="http://www.w3.org/2000/svg">
    <circle cx="15.5" cy="39.5" r="2.5" fill="#0D2333"/>
    <path fill-rule="evenodd" clip-rule="evenodd" d="M13.3464 0.000153913L16.5301 0C16.6264 0.00446792 16.7109 0.0154778 16.8296 0.0413261C17.7003 0.230913 18.0313 0.543545 18.8416 2.45827L18.9737 2.77412L19.4829 4.03589L19.5248 4.0531L20.1809 3.75609C21.6098 3.1171 22.3465 2.84795 22.8417 2.77285L22.9443 2.75966L23.1313 2.74958C23.5773 2.74958 24.0315 2.90753 24.3792 3.18256L24.5436 3.32964L26.579 5.35659L26.7205 5.50614C27.3598 6.21043 27.4195 6.70974 26.7123 8.52951L26.477 9.11658L25.9223 10.429L25.9328 10.4546L27.2035 10.9292L27.8161 11.1713C29.3985 11.8182 29.7236 12.1631 29.9352 12.9551C29.9778 13.1148 29.993 13.2236 29.9979 13.3587L30 13.5054V16.367C30 16.5704 29.993 16.6853 29.943 16.8863C29.7324 17.7319 29.4199 18.0539 27.5182 18.8571L27.2045 18.9881L25.9514 19.4938L25.9427 19.5149L26.3958 20.5047C27.5226 23.009 27.5619 23.558 26.8213 24.3827L26.7287 24.4831L24.6394 26.5709C24.2654 26.949 23.7325 27.1572 23.2169 27.1572C22.779 27.1572 22.0912 26.949 20.9189 26.4789L20.2912 26.2218L19.5763 25.9195L19.5354 25.9363L19.166 26.9271C18.2616 29.3099 17.9517 29.6968 17.0226 29.9366C16.8853 29.972 16.7871 29.9871 16.6756 29.9933L16.4918 29.9972H13.6284C13.4497 29.9972 13.3489 29.9918 13.1714 29.9533C12.3011 29.7646 11.9687 29.4513 11.1568 27.5355L11.0245 27.2194L10.5144 25.957L10.4752 25.9408L9.52222 26.3692C7.998 27.0402 7.33769 27.2444 6.86709 27.2444C6.42639 27.2444 5.97762 27.0895 5.62062 26.8119L5.45024 26.663L3.41765 24.633L3.18554 24.3799C2.62812 23.7241 2.60072 23.2155 3.28491 21.465L3.64144 20.5887L4.07666 19.5657L4.06758 19.5437L3.08225 19.1765C1.10563 18.4264 0.49647 18.0809 0.206997 17.4502L0.128698 17.2517L0.0632927 17.032C0.0262841 16.8915 0.0104902 16.7909 0.00407302 16.6764L0 16.4875V13.6242C0 13.4192 0.0071069 13.3033 0.0581582 13.1005C0.248491 12.3445 0.518642 12.0088 1.9417 11.3711L2.53149 11.1164L4.04599 10.5039L4.05637 10.4787L3.49012 9.22933C2.55575 7.10703 2.47836 6.46083 3.06788 5.73911L3.14854 5.64441L3.33955 5.44197L5.36424 3.42186C5.73519 3.04885 6.2658 2.83857 6.78224 2.83857C7.15163 2.83857 7.69401 2.98473 8.56208 3.31351L9.43539 3.65971L10.4254 4.07465L10.466 4.05776L10.8382 3.06054C11.7511 0.66055 12.0769 0.259195 13.0398 0.0436449C13.1613 0.0164549 13.2479 0.00486163 13.3464 0.000153913ZM15.7847 2.99723H14.1123L13.8765 3.55002C13.787 3.76978 13.686 4.02648 13.5719 4.32444L13.0492 5.72263C12.9238 6.05365 12.6862 6.32782 12.3808 6.49931L12.2227 6.57629L10.994 7.08757C10.6838 7.21665 10.3412 7.23714 10.0208 7.14922L9.83169 7.08347L8.37808 6.47075L7.59291 6.15765L7.06517 5.96287L5.87985 7.1455L6.01935 7.49786C6.07387 7.63057 6.13661 7.77896 6.20815 7.94426L6.44976 8.49218L7.05569 9.81682C7.20083 10.1323 7.23118 10.4862 7.14549 10.8184L7.08015 11.0146L6.57775 12.2355C6.44473 12.5587 6.20383 12.8236 5.89884 12.987L5.7412 13.06L4.10984 13.7157L3.29434 14.0653L3.00021 14.2015V15.8967L3.35215 16.0493C3.4854 16.1051 3.63502 16.1658 3.80236 16.2321L4.35888 16.4481L5.71118 16.9503C6.05211 17.0732 6.33502 17.3145 6.51048 17.6271L6.58903 17.7891L7.09151 19.0064C7.22054 19.319 7.23944 19.664 7.1487 19.9858L7.0811 20.1756L6.49793 21.5441L6.1322 22.4468L5.95403 22.9262L7.13943 24.1101L7.49239 23.9706C7.6224 23.9176 7.76489 23.8581 7.92021 23.7919L9.00898 23.3118L9.79415 22.9503C10.1227 22.7933 10.4952 22.7621 10.8421 22.8585L11.0132 22.9173L12.2491 23.4275C12.5767 23.5628 12.844 23.8088 13.0063 24.1196L13.0785 24.2803L13.3861 25.0563L13.8238 26.1207L14.0771 26.7023L14.2144 26.9972H15.8918L16.1313 26.4325L16.4433 25.6358L16.9513 24.2738C17.0766 23.9398 17.3159 23.6633 17.624 23.4912L17.7836 23.414L19.0142 22.9062C19.3208 22.7796 19.6588 22.759 19.9757 22.8441L20.1628 22.9079L21.3216 23.3994L22.1674 23.7439L22.6303 23.9224L22.9357 24.033L24.1225 22.8483L23.8938 22.2839L23.5507 21.5016L22.9436 20.1781C22.7979 19.8621 22.7675 19.5074 22.8535 19.1746L22.9192 18.978L23.4207 17.7624C23.553 17.4416 23.7917 17.1784 24.0938 17.015L24.25 16.9419L25.6317 16.3865L26.337 16.0908L26.5309 16.0064L27.0002 15.7917V14.0982L26.5297 13.8973L25.8924 13.6451L24.2838 13.0463C23.9437 12.9225 23.6618 12.6808 23.4872 12.3682L23.4091 12.2062L22.9074 10.984C22.7795 10.6722 22.761 10.3283 22.8514 10.0076L22.9187 9.81832L23.3844 8.72948C23.5056 8.44153 23.6111 8.18619 23.7023 7.96051L23.8657 7.54781L24.0438 7.06554L22.8578 5.88445L22.5046 6.0242C22.3092 6.10385 22.0855 6.19838 21.8316 6.30876L21.5675 6.42447L20.1832 7.05232C19.8683 7.19663 19.5153 7.22664 19.1839 7.14118L18.9881 7.07603L17.753 6.56833C17.4297 6.43543 17.1647 6.19461 17.0012 5.88966L16.9282 5.73204L16.4915 4.63945L16.175 3.87401L15.9997 3.46692L15.7847 2.99723ZM15.0001 8.99726C18.3093 8.99726 20.9994 11.6868 20.9994 14.996C20.9994 18.3053 18.3091 20.9973 15.0001 20.9973C11.6901 20.9973 8.99939 18.3058 8.99939 14.996C8.99939 11.6863 11.6899 8.99726 15.0001 8.99726ZM15.0003 11.9972C13.3466 11.9972 11.9996 13.3435 11.9996 14.9959C11.9996 16.6491 13.3474 17.9972 15.0003 17.9972C16.6521 17.9972 17.9996 16.6489 17.9996 14.9959C17.9996 13.3437 16.6528 11.9972 15.0003 11.9972Z" fill="#0D2333"/>
</svg>
