<svg width="62" height="112" viewBox="0 0 62 112" fill="none" xmlns="http://www.w3.org/2000/svg">
    <path d="M0 8C0 3.58172 3.58172 0 8 0H96V112H8C3.58172 112 0 108.418 0 104V8Z" fill="#E6E1F2"/>
    <path d="M28.5 25H67.5V29H28.5V25Z" fill="#1B2073"/>
    <path d="M48.1025 40.8363C48.0809 42.5079 49.622 43.4408 50.7829 43.9953C51.9757 44.5644 52.3763 44.9293 52.3718 45.4382C52.3627 46.217 51.4203 46.5607 50.5382 46.5741C48.9994 46.5975 48.1048 46.1668 47.3935 45.841L46.8392 48.384C47.5528 48.7065 48.8742 48.9877 50.2445 49C53.461 49 55.5654 47.4434 55.5768 45.0298C55.5893 41.9667 51.2552 41.7971 51.2848 40.4279C51.2951 40.0128 51.6991 39.5698 52.5846 39.4571C53.0228 39.4002 54.2327 39.3567 55.6041 39.976L56.1425 37.5155C55.405 37.2522 54.4569 37 53.2766 37C50.2491 37 48.1196 38.5778 48.1025 40.8363ZM61.3154 37.212C60.7281 37.212 60.233 37.5479 60.0122 38.0634L55.4175 48.8192L58.6316 48.8192L59.2713 47.0863H63.1991L63.5701 48.8192H66.403L63.9309 37.212H61.3154ZM61.765 40.3476L62.6926 44.7062L60.1522 44.7062L61.765 40.3476ZM44.2055 37.212L41.6719 48.8192H44.7347L47.2671 37.212H44.2055ZM39.6745 37.212L36.4865 45.1123L35.1969 38.3948C35.0456 37.645 34.448 37.212 33.7845 37.212H28.5728L28.5 37.549C29.5699 37.7766 30.7854 38.1438 31.5218 38.5365C31.9725 38.7765 32.1011 38.9862 32.2491 39.5564L34.6916 48.8192H37.9285L42.8909 37.212H39.6745Z" fill="#1B2073"/>
    <path d="M28.5 57H67.5V61H28.5V57Z" fill="#F7B802"/>
    <path d="M20.4212 85.1591C19.603 85.1591 18.8757 85.0189 18.2393 84.7386C17.6068 84.4583 17.1068 84.0682 16.7393 83.5682C16.3719 83.0682 16.1768 82.4905 16.1541 81.8352H18.2905C18.3094 82.1496 18.4136 82.4242 18.603 82.6591C18.7924 82.8902 19.0443 83.0701 19.3587 83.1989C19.6731 83.3277 20.0253 83.392 20.4155 83.392C20.8321 83.392 21.2015 83.3201 21.5234 83.1761C21.8454 83.0284 22.0973 82.8239 22.2791 82.5625C22.4609 82.3011 22.55 82 22.5462 81.6591C22.55 81.3068 22.459 80.9962 22.2734 80.7273C22.0878 80.4583 21.8189 80.2481 21.4666 80.0966C21.1181 79.9451 20.6977 79.8693 20.2053 79.8693H19.1768V78.2443H20.2053C20.6106 78.2443 20.9647 78.1742 21.2678 78.0341C21.5746 77.8939 21.8151 77.697 21.9893 77.4432C22.1636 77.1856 22.2488 76.8883 22.245 76.5511C22.2488 76.2216 22.175 75.9356 22.0234 75.6932C21.8757 75.447 21.6655 75.2557 21.3928 75.1193C21.1238 74.983 20.8075 74.9148 20.4439 74.9148C20.0878 74.9148 19.7583 74.9792 19.4553 75.108C19.1522 75.2367 18.9079 75.4205 18.7223 75.6591C18.5367 75.8939 18.4382 76.1742 18.4268 76.5H16.3984C16.4136 75.8485 16.6011 75.2765 16.9609 74.7841C17.3246 74.2879 17.8094 73.9015 18.4155 73.625C19.0215 73.3447 19.7015 73.2045 20.4553 73.2045C21.2318 73.2045 21.906 73.3504 22.478 73.642C23.0537 73.9299 23.4988 74.3182 23.8132 74.8068C24.1276 75.2955 24.2848 75.8352 24.2848 76.4261C24.2886 77.0814 24.0954 77.6307 23.7053 78.0739C23.3189 78.517 22.8113 78.8068 22.1825 78.9432V79.0341C23.0007 79.1477 23.6276 79.4508 24.0632 79.9432C24.5026 80.4318 24.7204 81.0398 24.7166 81.767C24.7166 82.4186 24.531 83.0019 24.1598 83.517C23.7924 84.0284 23.2848 84.4299 22.6371 84.7216C21.9931 85.0133 21.2545 85.1591 20.4212 85.1591ZM30.843 85.1591C30.0249 85.1591 29.2976 85.0189 28.6612 84.7386C28.0286 84.4583 27.5286 84.0682 27.1612 83.5682C26.7938 83.0682 26.5987 82.4905 26.576 81.8352H28.7124C28.7313 82.1496 28.8355 82.4242 29.0249 82.6591C29.2143 82.8902 29.4661 83.0701 29.7805 83.1989C30.0949 83.3277 30.4472 83.392 30.8374 83.392C31.254 83.392 31.6233 83.3201 31.9453 83.1761C32.2673 83.0284 32.5192 82.8239 32.701 82.5625C32.8828 82.3011 32.9718 82 32.968 81.6591C32.9718 81.3068 32.8809 80.9962 32.6953 80.7273C32.5097 80.4583 32.2408 80.2481 31.8885 80.0966C31.54 79.9451 31.1196 79.8693 30.6271 79.8693H29.5987V78.2443H30.6271C31.0324 78.2443 31.3866 78.1742 31.6896 78.0341C31.9964 77.8939 32.237 77.697 32.4112 77.4432C32.5855 77.1856 32.6707 76.8883 32.6669 76.5511C32.6707 76.2216 32.5968 75.9356 32.4453 75.6932C32.2976 75.447 32.0874 75.2557 31.8146 75.1193C31.5457 74.983 31.2294 74.9148 30.8658 74.9148C30.5097 74.9148 30.1802 74.9792 29.8771 75.108C29.5741 75.2367 29.3298 75.4205 29.1442 75.6591C28.9586 75.8939 28.8601 76.1742 28.8487 76.5H26.8203C26.8355 75.8485 27.023 75.2765 27.3828 74.7841C27.7464 74.2879 28.2313 73.9015 28.8374 73.625C29.4434 73.3447 30.1233 73.2045 30.8771 73.2045C31.6536 73.2045 32.3279 73.3504 32.8999 73.642C33.4756 73.9299 33.9207 74.3182 34.2351 74.8068C34.5495 75.2955 34.7067 75.8352 34.7067 76.4261C34.7105 77.0814 34.5173 77.6307 34.1271 78.0739C33.7408 78.517 33.2332 78.8068 32.6044 78.9432V79.0341C33.4226 79.1477 34.0495 79.4508 34.4851 79.9432C34.9245 80.4318 35.1423 81.0398 35.1385 81.767C35.1385 82.4186 34.9529 83.0019 34.5817 83.517C34.2143 84.0284 33.7067 84.4299 33.0589 84.7216C32.415 85.0133 31.6764 85.1591 30.843 85.1591ZM43.3104 82.8182V82.2045C43.3104 81.7538 43.4051 81.339 43.5945 80.9602C43.7876 80.5814 44.0679 80.2765 44.4354 80.0455C44.8028 79.8144 45.2479 79.6989 45.7706 79.6989C46.3085 79.6989 46.7592 79.8144 47.1229 80.0455C47.4865 80.2727 47.7611 80.5758 47.9467 80.9545C48.1361 81.3333 48.2308 81.75 48.2308 82.2045V82.8182C48.2308 83.2689 48.1361 83.6837 47.9467 84.0625C47.7573 84.4413 47.4789 84.7462 47.1115 84.9773C46.7479 85.2083 46.3009 85.3239 45.7706 85.3239C45.2403 85.3239 44.7914 85.2083 44.424 84.9773C44.0566 84.7462 43.7782 84.4413 43.5888 84.0625C43.4032 83.6837 43.3104 83.2689 43.3104 82.8182ZM44.7933 82.2045V82.8182C44.7933 83.1174 44.8653 83.392 45.0092 83.642C45.1532 83.892 45.407 84.017 45.7706 84.017C46.138 84.017 46.3899 83.8939 46.5263 83.6477C46.6664 83.3977 46.7365 83.1212 46.7365 82.8182V82.2045C46.7365 81.9015 46.6702 81.625 46.5376 81.375C46.4051 81.1212 46.1494 80.9943 45.7706 80.9943C45.4145 80.9943 45.1626 81.1212 45.0149 81.375C44.8672 81.625 44.7933 81.9015 44.7933 82.2045ZM37.3956 76.1591V75.5455C37.3956 75.0909 37.4922 74.6742 37.6854 74.2955C37.8786 73.9167 38.1589 73.6136 38.5263 73.3864C38.8937 73.1553 39.3388 73.0398 39.8615 73.0398C40.3956 73.0398 40.8445 73.1553 41.2081 73.3864C41.5755 73.6136 41.852 73.9167 42.0376 74.2955C42.2232 74.6742 42.3161 75.0909 42.3161 75.5455V76.1591C42.3161 76.6136 42.2214 77.0303 42.032 77.4091C41.8464 77.7841 41.5698 78.0852 41.2024 78.3125C40.835 78.5398 40.388 78.6534 39.8615 78.6534C39.3274 78.6534 38.8767 78.5398 38.5092 78.3125C38.1456 78.0852 37.8691 77.7822 37.6797 77.4034C37.4903 77.0246 37.3956 76.6098 37.3956 76.1591ZM38.8899 75.5455V76.1591C38.8899 76.4621 38.96 76.7386 39.1001 76.9886C39.2441 77.2348 39.4979 77.358 39.8615 77.358C40.2251 77.358 40.4751 77.2348 40.6115 76.9886C40.7517 76.7386 40.8217 76.4621 40.8217 76.1591V75.5455C40.8217 75.2424 40.7554 74.9659 40.6229 74.7159C40.4903 74.4621 40.2365 74.3352 39.8615 74.3352C39.5017 74.3352 39.2498 74.4621 39.1058 74.7159C38.9619 74.9697 38.8899 75.2462 38.8899 75.5455ZM38.0433 85L46.0433 73.3636H47.4638L39.4638 85H38.0433ZM61.2592 79.1818C61.2592 80.4508 61.0187 81.5303 60.5376 82.4205C60.0604 83.3106 59.4089 83.9905 58.5831 84.4602C57.7611 84.9261 56.8369 85.1591 55.8104 85.1591C54.7763 85.1591 53.8482 84.9242 53.0263 84.4545C52.2043 83.9848 51.5547 83.3049 51.0774 82.4148C50.6001 81.5246 50.3615 80.447 50.3615 79.1818C50.3615 77.9129 50.6001 76.8333 51.0774 75.9432C51.5547 75.053 52.2043 74.375 53.0263 73.9091C53.8482 73.4394 54.7763 73.2045 55.8104 73.2045C56.8369 73.2045 57.7611 73.4394 58.5831 73.9091C59.4089 74.375 60.0604 75.053 60.5376 75.9432C61.0187 76.8333 61.2592 77.9129 61.2592 79.1818ZM58.7649 79.1818C58.7649 78.3598 58.6418 77.6667 58.3956 77.1023C58.1532 76.5379 57.8104 76.1098 57.3672 75.8182C56.924 75.5265 56.4051 75.3807 55.8104 75.3807C55.2157 75.3807 54.6967 75.5265 54.2536 75.8182C53.8104 76.1098 53.4657 76.5379 53.2195 77.1023C52.977 77.6667 52.8558 78.3598 52.8558 79.1818C52.8558 80.0038 52.977 80.697 53.2195 81.2614C53.4657 81.8258 53.8104 82.2538 54.2536 82.5455C54.6967 82.8371 55.2157 82.983 55.8104 82.983C56.4051 82.983 56.924 82.8371 57.3672 82.5455C57.8104 82.2538 58.1532 81.8258 58.3956 81.2614C58.6418 80.697 58.7649 80.0038 58.7649 79.1818ZM63.0817 85V73.3636H70.7862V75.392H65.5419V78.1648H70.2749V80.1932H65.5419V85H63.0817ZM72.4411 85V73.3636H80.1456V75.392H74.9013V78.1648H79.6342V80.1932H74.9013V85H72.4411Z" fill="#333333"/>
</svg>
